<mxfile host="Electron" agent="Mozilla/5.0 (Windows NT 10.0; Win64; x64) AppleWebKit/537.36 (KHTML, like Gecko) draw.io/26.0.4 Chrome/128.0.6613.186 Electron/32.2.5 Safari/537.36" version="26.0.4">
  <diagram name="第 1 页" id="56ZH4iaZ3nfZnm-3HRD1">
    <mxGraphModel dx="842" dy="568" grid="0" gridSize="10" guides="1" tooltips="1" connect="1" arrows="1" fold="1" page="1" pageScale="1" pageWidth="827" pageHeight="1169" math="0" shadow="0">
      <root>
        <mxCell id="0" />
        <mxCell id="1" parent="0" />
        <mxCell id="_zf6cmhwT8bBvAmzelVO-3" value="普通用户" style="shape=umlActor;verticalLabelPosition=bottom;verticalAlign=top;html=1;outlineConnect=0;" vertex="1" parent="1">
          <mxGeometry x="500" y="190" width="30" height="60" as="geometry" />
        </mxCell>
        <mxCell id="_zf6cmhwT8bBvAmzelVO-10" value="支付" style="ellipse;whiteSpace=wrap;html=1;" vertex="1" parent="1">
          <mxGeometry x="580" y="280" width="140" height="70" as="geometry" />
        </mxCell>
        <mxCell id="_zf6cmhwT8bBvAmzelVO-11" value="管理个人中心" style="ellipse;whiteSpace=wrap;html=1;" vertex="1" parent="1">
          <mxGeometry x="570" y="370" width="140" height="70" as="geometry" />
        </mxCell>
        <mxCell id="_zf6cmhwT8bBvAmzelVO-12" value="管理订单" style="ellipse;whiteSpace=wrap;html=1;" vertex="1" parent="1">
          <mxGeometry x="610" y="190" width="140" height="70" as="geometry" />
        </mxCell>
        <mxCell id="_zf6cmhwT8bBvAmzelVO-13" value="管理购物车" style="ellipse;whiteSpace=wrap;html=1;" vertex="1" parent="1">
          <mxGeometry x="590" y="110" width="140" height="70" as="geometry" />
        </mxCell>
        <mxCell id="_zf6cmhwT8bBvAmzelVO-14" value="浏览商品信息" style="ellipse;whiteSpace=wrap;html=1;" vertex="1" parent="1">
          <mxGeometry x="570" y="20" width="140" height="70" as="geometry" />
        </mxCell>
        <mxCell id="_zf6cmhwT8bBvAmzelVO-15" value="" style="endArrow=classic;html=1;rounded=0;entryX=0;entryY=0.5;entryDx=0;entryDy=0;exitX=1;exitY=0.3333333333333333;exitDx=0;exitDy=0;exitPerimeter=0;" edge="1" parent="1" source="_zf6cmhwT8bBvAmzelVO-3" target="_zf6cmhwT8bBvAmzelVO-14">
          <mxGeometry width="50" height="50" relative="1" as="geometry">
            <mxPoint x="380" y="260" as="sourcePoint" />
            <mxPoint x="430" y="210" as="targetPoint" />
          </mxGeometry>
        </mxCell>
        <mxCell id="_zf6cmhwT8bBvAmzelVO-16" value="" style="endArrow=classic;html=1;rounded=0;entryX=0;entryY=0.5;entryDx=0;entryDy=0;" edge="1" parent="1" target="_zf6cmhwT8bBvAmzelVO-13">
          <mxGeometry width="50" height="50" relative="1" as="geometry">
            <mxPoint x="530" y="210" as="sourcePoint" />
            <mxPoint x="600" y="65" as="targetPoint" />
          </mxGeometry>
        </mxCell>
        <mxCell id="_zf6cmhwT8bBvAmzelVO-17" value="" style="endArrow=classic;html=1;rounded=0;entryX=0;entryY=0.5;entryDx=0;entryDy=0;" edge="1" parent="1" target="_zf6cmhwT8bBvAmzelVO-12">
          <mxGeometry width="50" height="50" relative="1" as="geometry">
            <mxPoint x="530" y="210" as="sourcePoint" />
            <mxPoint x="430" y="210" as="targetPoint" />
          </mxGeometry>
        </mxCell>
        <mxCell id="_zf6cmhwT8bBvAmzelVO-18" value="" style="endArrow=classic;html=1;rounded=0;entryX=0.214;entryY=0.143;entryDx=0;entryDy=0;entryPerimeter=0;" edge="1" parent="1" target="_zf6cmhwT8bBvAmzelVO-10">
          <mxGeometry width="50" height="50" relative="1" as="geometry">
            <mxPoint x="530" y="210" as="sourcePoint" />
            <mxPoint x="600" y="235" as="targetPoint" />
          </mxGeometry>
        </mxCell>
        <mxCell id="_zf6cmhwT8bBvAmzelVO-19" value="" style="endArrow=classic;html=1;rounded=0;entryX=0;entryY=0.5;entryDx=0;entryDy=0;" edge="1" parent="1" target="_zf6cmhwT8bBvAmzelVO-11">
          <mxGeometry width="50" height="50" relative="1" as="geometry">
            <mxPoint x="530" y="210" as="sourcePoint" />
            <mxPoint x="610" y="245" as="targetPoint" />
          </mxGeometry>
        </mxCell>
        <mxCell id="_zf6cmhwT8bBvAmzelVO-20" value="系统管理员" style="shape=umlActor;verticalLabelPosition=bottom;verticalAlign=top;html=1;" vertex="1" parent="1">
          <mxGeometry x="414" y="190" width="30" height="60" as="geometry" />
        </mxCell>
        <mxCell id="_zf6cmhwT8bBvAmzelVO-21" value="管理商品" style="ellipse;whiteSpace=wrap;html=1;" vertex="1" parent="1">
          <mxGeometry x="221" y="11" width="140" height="70" as="geometry" />
        </mxCell>
        <mxCell id="_zf6cmhwT8bBvAmzelVO-22" value="管理订单" style="ellipse;whiteSpace=wrap;html=1;" vertex="1" parent="1">
          <mxGeometry x="210" y="90" width="140" height="70" as="geometry" />
        </mxCell>
        <mxCell id="_zf6cmhwT8bBvAmzelVO-25" value="查看统计数据" style="ellipse;whiteSpace=wrap;html=1;" vertex="1" parent="1">
          <mxGeometry x="250" y="430" width="140" height="70" as="geometry" />
        </mxCell>
        <mxCell id="_zf6cmhwT8bBvAmzelVO-26" value="管理用户" style="ellipse;whiteSpace=wrap;html=1;" vertex="1" parent="1">
          <mxGeometry x="190" y="180" width="140" height="70" as="geometry" />
        </mxCell>
        <mxCell id="_zf6cmhwT8bBvAmzelVO-27" value="管理营销" style="ellipse;whiteSpace=wrap;html=1;" vertex="1" parent="1">
          <mxGeometry x="180" y="260" width="140" height="70" as="geometry" />
        </mxCell>
        <mxCell id="_zf6cmhwT8bBvAmzelVO-28" value="管理系统配置" style="ellipse;whiteSpace=wrap;html=1;" vertex="1" parent="1">
          <mxGeometry x="210" y="350" width="140" height="70" as="geometry" />
        </mxCell>
        <mxCell id="_zf6cmhwT8bBvAmzelVO-29" value="" style="endArrow=classic;html=1;rounded=0;exitX=0;exitY=0.3333333333333333;exitDx=0;exitDy=0;exitPerimeter=0;entryX=1;entryY=0.5;entryDx=0;entryDy=0;" edge="1" parent="1" source="_zf6cmhwT8bBvAmzelVO-20" target="_zf6cmhwT8bBvAmzelVO-21">
          <mxGeometry width="50" height="50" relative="1" as="geometry">
            <mxPoint x="383" y="256" as="sourcePoint" />
            <mxPoint x="433" y="206" as="targetPoint" />
          </mxGeometry>
        </mxCell>
        <mxCell id="_zf6cmhwT8bBvAmzelVO-30" value="" style="endArrow=classic;html=1;rounded=0;entryX=1;entryY=0.5;entryDx=0;entryDy=0;exitX=0;exitY=0.3333333333333333;exitDx=0;exitDy=0;exitPerimeter=0;" edge="1" parent="1" source="_zf6cmhwT8bBvAmzelVO-20" target="_zf6cmhwT8bBvAmzelVO-22">
          <mxGeometry width="50" height="50" relative="1" as="geometry">
            <mxPoint x="393" y="222" as="sourcePoint" />
            <mxPoint x="380" y="45" as="targetPoint" />
          </mxGeometry>
        </mxCell>
        <mxCell id="_zf6cmhwT8bBvAmzelVO-31" value="" style="endArrow=classic;html=1;rounded=0;exitX=0;exitY=0.3333333333333333;exitDx=0;exitDy=0;exitPerimeter=0;entryX=1;entryY=0.5;entryDx=0;entryDy=0;" edge="1" parent="1" source="_zf6cmhwT8bBvAmzelVO-20" target="_zf6cmhwT8bBvAmzelVO-26">
          <mxGeometry width="50" height="50" relative="1" as="geometry">
            <mxPoint x="434" y="230" as="sourcePoint" />
            <mxPoint x="390" y="55" as="targetPoint" />
          </mxGeometry>
        </mxCell>
        <mxCell id="_zf6cmhwT8bBvAmzelVO-32" value="" style="endArrow=classic;html=1;rounded=0;exitX=0;exitY=0.3333333333333333;exitDx=0;exitDy=0;exitPerimeter=0;entryX=1;entryY=0.5;entryDx=0;entryDy=0;" edge="1" parent="1" source="_zf6cmhwT8bBvAmzelVO-20" target="_zf6cmhwT8bBvAmzelVO-27">
          <mxGeometry width="50" height="50" relative="1" as="geometry">
            <mxPoint x="424" y="220" as="sourcePoint" />
            <mxPoint x="340" y="225" as="targetPoint" />
          </mxGeometry>
        </mxCell>
        <mxCell id="_zf6cmhwT8bBvAmzelVO-33" value="" style="endArrow=classic;html=1;rounded=0;exitX=0;exitY=0.3333333333333333;exitDx=0;exitDy=0;exitPerimeter=0;entryX=1;entryY=0;entryDx=0;entryDy=0;" edge="1" parent="1" source="_zf6cmhwT8bBvAmzelVO-20" target="_zf6cmhwT8bBvAmzelVO-28">
          <mxGeometry width="50" height="50" relative="1" as="geometry">
            <mxPoint x="434" y="230" as="sourcePoint" />
            <mxPoint x="350" y="235" as="targetPoint" />
          </mxGeometry>
        </mxCell>
        <mxCell id="_zf6cmhwT8bBvAmzelVO-34" value="" style="endArrow=classic;html=1;rounded=0;entryX=1;entryY=0;entryDx=0;entryDy=0;" edge="1" parent="1" target="_zf6cmhwT8bBvAmzelVO-25">
          <mxGeometry width="50" height="50" relative="1" as="geometry">
            <mxPoint x="414" y="209" as="sourcePoint" />
            <mxPoint x="360" y="245" as="targetPoint" />
          </mxGeometry>
        </mxCell>
        <mxCell id="_zf6cmhwT8bBvAmzelVO-48" value="" style="rounded=0;whiteSpace=wrap;html=1;fillColor=none;" vertex="1" parent="1">
          <mxGeometry x="556" y="5" width="237" height="446" as="geometry" />
        </mxCell>
        <mxCell id="_zf6cmhwT8bBvAmzelVO-49" value="" style="rounded=0;whiteSpace=wrap;html=1;fillColor=none;" vertex="1" parent="1">
          <mxGeometry x="168" y="5" width="231" height="506" as="geometry" />
        </mxCell>
        <mxCell id="_zf6cmhwT8bBvAmzelVO-50" value="后台管理系统" style="rounded=0;whiteSpace=wrap;html=1;" vertex="1" parent="1">
          <mxGeometry x="168" y="470" width="76" height="41" as="geometry" />
        </mxCell>
        <mxCell id="_zf6cmhwT8bBvAmzelVO-51" value="手机web/weixin端" style="rounded=0;whiteSpace=wrap;html=1;" vertex="1" parent="1">
          <mxGeometry x="556" y="451" width="178" height="35" as="geometry" />
        </mxCell>
      </root>
    </mxGraphModel>
  </diagram>
</mxfile>
